<svg width="72" height="72" viewBox="0 0 72 72" fill="none" xmlns="http://www.w3.org/2000/svg">
<path d="M7.5 48H4.5M19.5 51L36 54L52.5 51M22.5 33C20.67 33 19.14 33.81 18 35.25L8.25 46.5C7.755 47.055 7.5 48 7.5 48.75V63C7.5 65.49 9.51 67.5 12 67.5H16.5L21 63H51L55.5 67.5H60C62.49 67.5 64.5 65.49 64.5 63V48.75C64.5 48 64.245 47.055 63.75 46.5L54 35.25C52.86 33.81 51.33 33 49.5 33H48M64.5 48H67.5" stroke="#272F3A" stroke-width="2" stroke-miterlimit="10" stroke-linecap="square"/>
<path d="M36 33L31.5 37.5L27 33M31.5 36V19.5M36 24L40.5 19.455L45 24M40.5 21V37.44M48.75 24.75C51.6 24.75 54 22.995 54 19.5C54 16.695 51.84 14.415 48.99 14.415C48.09 14.415 47.085 14.82 46.29 15.255V14.58C46.29 8.955 41.7 4.5 36 4.5C32.265 4.515 28.905 6.24 27.03 9.42H25.74C21.465 9.42 18 12.6 18 16.815C18 21.03 21.225 24.735 25.5 24.75H27" stroke="#00AFAA" stroke-width="2" stroke-miterlimit="10" stroke-linecap="square"/>
</svg>
