
<svg width="40" height="35" viewBox="0 0 40 35" fill="none" xmlns="http://www.w3.org/2000/svg">
  <path fill-rule="evenodd" clip-rule="evenodd" d="M11.038 29.6626L5.51915 34.9054L0 29.6628L11.038 29.6626Z"
    fill="#1EF3E4" />
  <path fill-rule="evenodd" clip-rule="evenodd"
    d="M38.0489 5.78038C36.9742 7.30647 35.1152 9.77537 33.1579 7.91615L38.1105 3.2112C37.6661 2.75943 37.3282 2.38099 37.0702 2.13513C34.4001 -0.408578 31.3919 -0.441422 29.0336 1.79248C27.458 3.2852 27.0451 4.99347 27.5036 6.61715L25.9516 4.93824C25.5022 5.17404 23.6004 6.76368 25.0262 9.17065L23.2505 7.76775L20.8923 10.0017L24.0777 13.0277C21.617 11.1725 18.9649 11.3551 16.8367 13.371C14.5581 15.5297 14.7182 18.1453 16.4252 20.2974L16.0805 19.973C13.8299 17.8349 11.3836 18.5894 10.1735 19.7391C9.23852 20.6273 8.66561 21.85 8.90042 22.6993L4.01317 18.0567L1.41602 20.5229L11.038 29.6627H16.2022L12.7355 26.3688C10.9145 24.6099 10.8828 23.6787 11.7684 22.8429C12.622 22.0375 13.6134 22.5387 15.3604 24.1939L18.7861 27.4473L21.3683 24.9945L18.1165 21.9065C20.4608 23.5897 23.2688 23.6796 25.7738 21.3067C25.7891 21.292 25.803 21.277 25.8183 21.2622L25.8194 21.2636C27.3543 19.9151 27.8033 18.6042 27.8033 18.6042L25.852 17.3589C24.7774 18.8849 22.922 21.3591 20.9645 19.4999L25.9275 14.785L29.0212 17.7241L31.7195 15.1607L27.8484 11.4831C26.0401 9.76519 27.112 8.15209 27.8637 7.54468C28.2157 8.2533 28.7311 8.93364 29.3863 9.5578C31.8896 11.9425 35.1255 12.4234 37.9706 9.72832C37.986 9.71357 38 9.69856 38.0151 9.68381L38.0164 9.68502C39.5509 8.33669 40.0001 7.02589 40.0001 7.02589L38.0489 5.78038ZM30.9155 3.49837C31.7825 2.67687 32.6628 3.02408 33.649 3.93472L31.2943 6.17184C30.142 4.87137 30.2004 4.17562 30.9155 3.49837ZM19.101 17.7557C17.9486 16.4553 18.0037 15.7542 18.7186 15.0768C19.586 14.2553 20.4659 14.6027 21.4523 15.5133L19.101 17.7557Z"
    fill="#092732" />
</svg>
