<svg id="Layer_1" data-name="Layer 1" xmlns="http://www.w3.org/2000/svg" viewBox="0 0 72 72" height="72" width="72"><title>Software Vendors 72px</title><g class="nc-icon-wrapper" stroke-width="2" fill="#00afaa" stroke="#00afaa"><g id="Software-Vendors" fill="#111111"><path d="M33 63h-28.5v-51a3 3 0 0 1 3-3h57a3 3 0 0 1 3 3v25.5m-61.5-19.5h60m-55.5-4.5h1.5m4.5 0h1.5m4.5 0h1.5m30.15 20.85h-6.3l-0.75 5.55a13.04 13.04 0 0 0-3.9 2.4l-5.55-2.4-3.15 5.55 4.65 3.3a12.12 12.12 0 0 0 0 4.65l-4.65 3.15 3.15 5.4 5.55-2.4a9.5 9.5 0 0 0 3.9 2.4l0.75 5.55h6.3l0.75-5.4a13.04 13.04 0 0 0 3.9-2.4l5.55 2.4 3.15-5.55-4.65-3.15a12.12 12.12 0 0 0 0-4.65l4.65-3.15-3.15-5.55-5.55 2.4a9.5 9.5 0 0 0-3.9-2.4z m-43.65-4.35h7.5m4.5 0h19.5m-31.5 6h7.5m4.5 0h9m-21-12h7.5m4.5 0h19.5" fill="none" stroke="#111111" stroke-linecap="square" stroke-miterlimit="10"/><path d="M48 54l-3-3 3-3m6 6l3-3-3-3" fill="none" stroke-linecap="square" stroke-miterlimit="10" data-color="color-2"/></g></g></svg>
