<svg width="72" height="72" viewBox="0 0 72 72" fill="none" xmlns="http://www.w3.org/2000/svg">
<path d="M67.5 26.25L61.5 32.25L67.5 38.25M55.5 10.5L67.5 22.5M55.5 61.5L67.5 49.5M37.5 61.5L44.25 54.75L51 61.5M46.5 10.5L30 27L21 18L28.5 10.5M4.5 15L23.25 33.75L10.5 46.5L4.5 40.5M7.50001 61.5L16.5 52.5L25.5 61.5M7.50001 61.5C5.84315 61.5 4.50001 60.2315 4.50001 58.6667V13.3333C4.50001 11.7685 5.84315 10.5 7.50001 10.5H64.5C66.1569 10.5 67.5 11.7685 67.5 13.3333V58.6667C67.5 60.2315 66.1569 61.5 64.5 61.5H7.50001Z" stroke="#272F3A" stroke-width="2" stroke-miterlimit="10"/>
<path d="M39 30L22.5 46.5L33 57L45 45L53.25 53.25L63 43.5L57 37.5M56.3085 20.0796C57.0016 20.7265 57.5543 21.5091 57.9322 22.3788C58.31 23.2484 58.505 24.1864 58.505 25.1346C58.505 26.0827 58.31 27.0207 57.9322 27.8904C57.5543 28.76 57.0016 29.5426 56.3085 30.1896C54.8085 31.5696 50.9985 34.4946 50.9985 34.4946C50.9985 34.4946 47.1585 31.5696 45.7035 30.1896C45.0084 29.5437 44.454 28.7615 44.0748 27.8918C43.6957 27.022 43.5 26.0834 43.5 25.1346C43.5 24.1857 43.6957 23.2471 44.0748 22.3774C44.454 21.5076 45.0084 20.7254 45.7035 20.0796C47.1457 18.7427 49.0396 18 51.006 18C52.9725 18 54.8663 18.7427 56.3085 20.0796ZM53.25 24.8795C53.25 26.1221 52.2426 27.1295 51 27.1295C49.7574 27.1295 48.75 26.1221 48.75 24.8795C48.75 23.6368 49.7574 22.6295 51 22.6295C52.2426 22.6295 53.25 23.6368 53.25 24.8795Z" stroke="#00AFAA" stroke-width="2" stroke-miterlimit="10"/>
</svg>
